<svg width="153" height="25" viewBox="0 0 153 25" fill="none" xmlns="http://www.w3.org/2000/svg">
<path d="M19.1667 0C14.0563 0 10.8604 2.77805 9.58333 8.33293C11.5 5.5561 13.7354 4.51342 16.2917 5.20975C17.7511 5.60471 18.7917 6.75433 19.9459 8.02669C21.8243 10.0999 24 12.5 28.7511 12.5C33.8626 12.5 37.0574 9.72195 38.3345 4.16707C36.4189 6.94512 34.1824 7.98658 31.6261 7.29146C30.1689 6.89651 29.1261 5.74567 27.9718 4.4721C26.0935 2.40011 23.9178 0 19.1667 0ZM9.58333 12.5C4.47185 12.5 1.27703 15.278 0 20.8329C1.91554 18.0549 4.15203 17.0134 6.70833 17.7085C8.16554 18.1035 9.20833 19.2543 10.3626 20.5279C12.241 22.5999 14.4167 25 19.1667 25C24.2793 25 27.4741 22.222 28.7511 16.6671C26.8345 19.4451 24.598 20.4866 22.0428 19.7915C20.5845 19.3953 19.5428 18.2457 18.3885 16.9721C16.509 14.9001 14.3356 12.5 9.58333 12.5Z" fill="white"/>
<path d="M54.9915 22.381V2.38098H59.6201V18.6096H69.6487V22.381H54.9915ZM80.0362 22.6096C78.3981 22.6096 76.941 22.2667 75.6648 21.581C74.4076 20.8953 73.4076 19.9619 72.6648 18.781C71.941 17.581 71.579 16.2191 71.579 14.6953C71.579 13.1524 71.941 11.7905 72.6648 10.6096C73.4076 9.40955 74.4076 8.47622 75.6648 7.80955C76.941 7.12384 78.3981 6.78098 80.0362 6.78098C81.6552 6.78098 83.1029 7.12384 84.379 7.80955C85.6552 8.47622 86.6552 9.40003 87.379 10.581C88.1029 11.7619 88.4648 13.1334 88.4648 14.6953C88.4648 16.2191 88.1029 17.581 87.379 18.781C86.6552 19.9619 85.6552 20.8953 84.379 21.581C83.1029 22.2667 81.6552 22.6096 80.0362 22.6096ZM80.0362 18.9524C80.779 18.9524 81.4457 18.781 82.0362 18.4381C82.6267 18.0953 83.0933 17.6096 83.4362 16.981C83.779 16.3334 83.9505 15.5715 83.9505 14.6953C83.9505 13.8 83.779 13.0381 83.4362 12.4096C83.0933 11.781 82.6267 11.2953 82.0362 10.9524C81.4457 10.6096 80.779 10.4381 80.0362 10.4381C79.2933 10.4381 78.6267 10.6096 78.0362 10.9524C77.4457 11.2953 76.9695 11.781 76.6076 12.4096C76.2648 13.0381 76.0933 13.8 76.0933 14.6953C76.0933 15.5715 76.2648 16.3334 76.6076 16.981C76.9695 17.6096 77.4457 18.0953 78.0362 18.4381C78.6267 18.781 79.2933 18.9524 80.0362 18.9524ZM92.3011 22.381V7.00955H96.5583V11.3524L95.9583 10.0953C96.4154 9.00955 97.1488 8.1905 98.1583 7.63812C99.1678 7.0667 100.396 6.78098 101.844 6.78098V10.8953C101.654 10.8762 101.482 10.8667 101.33 10.8667C101.177 10.8476 101.015 10.8381 100.844 10.8381C99.625 10.8381 98.6345 11.1905 97.8726 11.8953C97.1297 12.581 96.7583 13.6572 96.7583 15.1238V22.381H92.3011ZM112.868 22.6096C111.116 22.6096 109.573 22.2667 108.24 21.581C106.925 20.8953 105.906 19.9619 105.183 18.781C104.459 17.581 104.097 16.2191 104.097 14.6953C104.097 13.1524 104.449 11.7905 105.154 10.6096C105.878 9.40955 106.859 8.47622 108.097 7.80955C109.335 7.12384 110.735 6.78098 112.297 6.78098C113.802 6.78098 115.154 7.10479 116.354 7.75241C117.573 8.38098 118.535 9.29527 119.24 10.4953C119.945 11.6762 120.297 13.0953 120.297 14.7524C120.297 14.9238 120.287 15.1238 120.268 15.3524C120.249 15.5619 120.23 15.7619 120.211 15.9524H107.725V13.3524H117.868L116.154 14.1238C116.154 13.3238 115.992 12.6286 115.668 12.0381C115.345 11.4476 114.897 10.9905 114.325 10.6667C113.754 10.3238 113.087 10.1524 112.325 10.1524C111.564 10.1524 110.887 10.3238 110.297 10.6667C109.725 10.9905 109.278 11.4572 108.954 12.0667C108.63 12.6572 108.468 13.3619 108.468 14.181V14.8667C108.468 15.7048 108.649 16.4476 109.011 17.0953C109.392 17.7238 109.916 18.2096 110.583 18.5524C111.268 18.8762 112.068 19.0381 112.983 19.0381C113.802 19.0381 114.516 18.9143 115.125 18.6667C115.754 18.4191 116.325 18.0476 116.84 17.5524L119.211 20.1238C118.506 20.9238 117.621 21.5429 116.554 21.981C115.487 22.4 114.259 22.6096 112.868 22.6096ZM143.807 6.78098C145.026 6.78098 146.102 7.0286 147.036 7.52384C147.988 8.00003 148.731 8.74289 149.264 9.75241C149.817 10.7429 150.093 12.0191 150.093 13.581V22.381H145.636V14.2667C145.636 13.0286 145.379 12.1143 144.864 11.5238C144.35 10.9334 143.626 10.6381 142.693 10.6381C142.045 10.6381 141.464 10.7905 140.95 11.0953C140.436 11.381 140.036 11.8191 139.75 12.4096C139.464 13 139.321 13.7524 139.321 14.6667V22.381H134.864V14.2667C134.864 13.0286 134.607 12.1143 134.093 11.5238C133.598 10.9334 132.883 10.6381 131.95 10.6381C131.302 10.6381 130.721 10.7905 130.207 11.0953C129.693 11.381 129.293 11.8191 129.007 12.4096C128.721 13 128.579 13.7524 128.579 14.6667V22.381H124.121V7.00955H128.379V11.2096L127.579 9.98098C128.112 8.93336 128.864 8.14289 129.836 7.60955C130.826 7.05717 131.95 6.78098 133.207 6.78098C134.617 6.78098 135.845 7.14289 136.893 7.8667C137.96 8.57146 138.664 9.65717 139.007 11.1238L137.436 10.6953C137.95 9.49527 138.769 8.54289 139.893 7.83812C141.036 7.13336 142.341 6.78098 143.807 6.78098Z" fill="white"/>
</svg>
