<svg width="164" height="62" viewBox="0 0 164 62" fill="none" xmlns="http://www.w3.org/2000/svg">
<path d="M22.4085 16.0778L16.4899 30.9433C16.1486 31.698 15.9778 32.1758 15.9778 32.3771C15.9778 32.9557 16.4457 33.3643 17.3815 33.6033V34.207H9.05377V33.6033C9.90109 33.4398 10.3248 33.0122 10.3248 32.3204C10.3248 32.1318 10.1477 31.5721 9.7936 30.6415L2.37641 11.6445C2.00965 10.7012 1.67451 10.0661 1.371 9.73912C1.08013 9.39955 0.650149 9.17316 0.0810547 9.05997V8.4563H9.07275V9.05997C8.27602 9.23605 7.87764 9.60707 7.87764 10.173C7.87764 10.4623 7.97882 10.8773 8.18117 11.4181L13.303 25.0386L18.8423 11.3426C19.0824 10.7515 19.2027 10.3617 19.2027 10.173C19.2027 9.59449 18.779 9.22348 17.9317 9.05997V8.4563H27.3406V9.05997C26.4807 9.28637 26.0507 9.69511 26.0507 10.2862C26.0507 10.4874 26.1582 10.8647 26.3732 11.4181L31.6469 25.0953L36.7497 11.6445C37.0153 10.9779 37.1481 10.4811 37.1481 10.1542C37.1481 9.60078 36.6928 9.23605 35.7822 9.05997V8.4563H44.679V9.05997C44.0468 9.23605 43.6104 9.46244 43.3703 9.73912C43.1299 10.0158 42.8138 10.6509 42.4217 11.6445L35.0046 30.6415C34.6505 31.5471 34.4734 32.1508 34.4734 32.4525C34.4734 33.0688 34.9223 33.4525 35.8203 33.6033V34.207H27.3786V33.6033C28.2638 33.465 28.7065 33.0437 28.7065 32.3394C28.7065 32.1004 28.5104 31.5344 28.1184 30.6415L22.4085 16.0778ZM53.3468 25.5291V32.2827C53.3468 32.6726 53.4354 32.9745 53.6124 33.1883C53.7895 33.3895 54.1056 33.5594 54.5608 33.6977V34.207H47.0487V33.6788C47.4914 33.5656 47.8013 33.4021 47.9784 33.1883C48.168 32.9745 48.2629 32.6726 48.2629 32.2827V15.0024C48.2629 14.6126 48.1743 14.317 47.9973 14.1158C47.8202 13.9146 47.504 13.7448 47.0487 13.6064V13.0782H60.9726C62.7811 13.0782 64.1596 13.1725 65.1081 13.3612C66.0566 13.5373 66.9039 13.8643 67.6501 14.3422C69.1803 15.3358 69.9453 16.9582 69.9453 19.2094C69.9453 20.9197 69.4711 22.2592 68.5226 23.2276C67.5868 24.1835 66.0692 24.8751 63.9699 25.3027L67.9914 30.8868C68.725 31.918 69.3067 32.6223 69.7368 32.9997C70.1793 33.3643 70.6789 33.5971 71.2354 33.6977V34.207H62.3195V33.6977C62.9772 33.5216 63.3059 33.2387 63.3059 32.8486C63.3059 32.5721 63.1035 32.1508 62.6989 31.5848L58.4496 25.5291H53.3468ZM53.3468 21.6995H61.0105C62.174 21.6995 63.034 21.5738 63.5905 21.3221C64.3745 20.9827 64.7666 20.3098 64.7666 19.3036C64.7666 18.4107 64.4883 17.7881 63.932 17.436C63.3881 17.0838 62.4144 16.9078 61.0105 16.9078H53.3468V21.6995ZM81.6483 15.0024V32.2827C81.6483 32.6726 81.7367 32.9745 81.9138 33.1883C82.0908 33.3895 82.407 33.5594 82.8623 33.6977V34.207H75.3503V33.6788C75.793 33.5656 76.1027 33.4021 76.2797 33.1883C76.4695 32.9745 76.5643 32.6726 76.5643 32.2827V15.0024C76.5643 14.6126 76.4758 14.317 76.2988 14.1158C76.1217 13.9146 75.8055 13.7448 75.3503 13.6064V13.0782H82.8623V13.6064C82.407 13.7322 82.0908 13.902 81.9138 14.1158C81.7367 14.317 81.6483 14.6126 81.6483 15.0024ZM99.8957 16.9078V32.2827C99.8957 32.6726 99.9842 32.9745 100.161 33.1883C100.338 33.3895 100.654 33.5594 101.11 33.6977V34.207H93.5977V33.6788C94.0403 33.5656 94.3501 33.4021 94.5272 33.1883C94.717 32.9745 94.8117 32.6726 94.8117 32.2827V16.9078H88.5518C88.147 16.9078 87.8371 17.0021 87.6221 17.1907C87.4199 17.3668 87.2554 17.6812 87.1289 18.134H86.6168V11.8709H87.148C87.2617 12.311 87.4199 12.6255 87.6221 12.8141C87.8371 12.9902 88.147 13.0782 88.5518 13.0782H106.156C106.56 13.0782 106.864 12.9902 107.066 12.8141C107.281 12.638 107.452 12.3236 107.578 11.8709H108.091V18.134H107.578C107.452 17.6812 107.281 17.3668 107.066 17.1907C106.864 17.0021 106.56 16.9078 106.156 16.9078H99.8957ZM118.409 25.2272V30.3773H131.896C132.288 30.3773 132.585 30.2894 132.788 30.1133C133.003 29.9372 133.174 29.6166 133.3 29.1512H133.831V35.4143H133.3C133.186 34.9742 133.022 34.6598 132.807 34.471C132.592 34.295 132.288 34.207 131.896 34.207H112.111V33.6788C112.553 33.5656 112.863 33.4021 113.04 33.1883C113.23 32.9745 113.325 32.6726 113.325 32.2827V15.0024C113.325 14.6126 113.236 14.317 113.059 14.1158C112.882 13.9146 112.566 13.7448 112.111 13.6064V13.0782H131.308C131.713 13.0782 132.016 12.9902 132.219 12.8141C132.434 12.638 132.605 12.3236 132.731 11.8709H133.243V18.134H132.731C132.605 17.6687 132.434 17.348 132.219 17.172C132.016 16.9959 131.713 16.9078 131.308 16.9078H118.409V21.5486H126.414C126.806 21.5486 127.103 21.4605 127.306 21.2844C127.521 21.1083 127.698 20.7941 127.837 20.3413H128.349V26.4535H127.837C127.71 26.0007 127.54 25.6863 127.325 25.5102C127.122 25.3216 126.819 25.2272 126.414 25.2272H118.409ZM144.889 25.5291V32.2827C144.889 32.6726 144.978 32.9745 145.155 33.1883C145.332 33.3895 145.648 33.5594 146.103 33.6977V34.207H138.591V33.6788C139.034 33.5656 139.344 33.4021 139.521 33.1883C139.71 32.9745 139.805 32.6726 139.805 32.2827V15.0024C139.805 14.6126 139.717 14.317 139.54 14.1158C139.362 13.9146 139.046 13.7448 138.591 13.6064V13.0782H152.515C154.324 13.0782 155.701 13.1725 156.65 13.3612C157.599 13.5373 158.446 13.8643 159.192 14.3422C160.723 15.3358 161.488 16.9582 161.488 19.2094C161.488 20.9197 161.013 22.2592 160.066 23.2276C159.129 24.1835 157.612 24.8751 155.513 25.3027L159.534 30.8868C160.267 31.918 160.849 32.6223 161.279 32.9997C161.721 33.3643 162.222 33.5971 162.777 33.6977V34.207H153.862V33.6977C154.519 33.5216 154.848 33.2387 154.848 32.8486C154.848 32.5721 154.647 32.1508 154.241 31.5848L149.992 25.5291H144.889ZM144.889 21.6995H152.553C153.716 21.6995 154.576 21.5738 155.133 21.3221C155.916 20.9827 156.31 20.3098 156.31 19.3036C156.31 18.4107 156.03 17.7881 155.474 17.436C154.931 17.0838 153.957 16.9078 152.553 16.9078H144.889V21.6995Z" fill="#292D36"/>
<path d="M121.216 53.1428C120.451 53.1428 119.787 52.9828 119.224 52.6625C118.674 52.3292 118.245 51.8824 117.936 51.3221C117.641 50.7485 117.494 50.1082 117.494 49.4013V40.8375H113.208V39.1368H123.711V40.8375H119.425V49.6413C119.425 50.1615 119.586 50.595 119.908 50.9418C120.243 51.2753 120.686 51.4421 121.236 51.4421H122.161V53.1428H121.216ZM129.476 53.3829C128.43 53.3829 127.504 53.1495 126.699 52.6825C125.895 52.2024 125.258 51.5621 124.788 50.7618C124.319 49.9481 124.084 49.041 124.084 48.0406C124.084 47.0402 124.319 46.1399 124.788 45.3395C125.258 44.5257 125.895 43.8856 126.699 43.4187C127.504 42.9385 128.43 42.6984 129.476 42.6984C130.522 42.6984 131.448 42.9385 132.252 43.4187C133.071 43.8856 133.708 44.5192 134.164 45.3195C134.633 46.1199 134.868 47.0268 134.868 48.0406C134.868 49.041 134.633 49.9481 134.164 50.7618C133.708 51.5621 133.071 52.2024 132.252 52.6825C131.448 53.1495 130.522 53.3829 129.476 53.3829ZM129.476 51.8022C130.187 51.8022 130.804 51.6356 131.327 51.3021C131.85 50.9685 132.259 50.5217 132.554 49.9614C132.849 49.3878 132.997 48.7475 132.997 48.0406C132.997 47.3336 132.849 46.7 132.554 46.1399C132.259 45.5663 131.85 45.1127 131.327 44.7792C130.804 44.4457 130.187 44.2791 129.476 44.2791C128.778 44.2791 128.161 44.4457 127.625 44.7792C127.102 45.1127 126.693 45.5663 126.398 46.1399C126.103 46.7 125.955 47.3336 125.955 48.0406C125.955 48.7475 126.103 49.3878 126.398 49.9614C126.693 50.5217 127.102 50.9685 127.625 51.3021C128.161 51.6356 128.778 51.8022 129.476 51.8022ZM142.07 53.3829C141.024 53.3829 140.099 53.1495 139.294 52.6825C138.489 52.2024 137.852 51.5621 137.382 50.7618C136.913 49.9481 136.678 49.041 136.678 48.0406C136.678 47.0402 136.913 46.1399 137.382 45.3395C137.852 44.5257 138.489 43.8856 139.294 43.4187C140.099 42.9385 141.024 42.6984 142.07 42.6984C143.117 42.6984 144.042 42.9385 144.847 43.4187C145.665 43.8856 146.302 44.5192 146.758 45.3195C147.228 46.1199 147.463 47.0268 147.463 48.0406C147.463 49.041 147.228 49.9481 146.758 50.7618C146.302 51.5621 145.665 52.2024 144.847 52.6825C144.042 53.1495 143.117 53.3829 142.07 53.3829ZM142.07 51.8022C142.781 51.8022 143.398 51.6356 143.921 51.3021C144.445 50.9685 144.854 50.5217 145.149 49.9614C145.444 49.3878 145.591 48.7475 145.591 48.0406C145.591 47.3336 145.444 46.7 145.149 46.1399C144.854 45.5663 144.445 45.1127 143.921 44.7792C143.398 44.4457 142.781 44.2791 142.07 44.2791C141.373 44.2791 140.756 44.4457 140.219 44.7792C139.696 45.1127 139.287 45.5663 138.992 46.1399C138.697 46.7 138.55 47.3336 138.55 48.0406C138.55 48.7475 138.697 49.3878 138.992 49.9614C139.287 50.5217 139.696 50.9685 140.219 51.3021C140.756 51.6356 141.373 51.8022 142.07 51.8022ZM149.836 53.1428V38.5366H151.687V53.1428H149.836ZM154.489 53.1428V51.5621H159.398C159.721 51.5621 159.996 51.4954 160.223 51.3621C160.466 51.2153 160.647 51.0286 160.766 50.8018C160.888 50.575 160.948 50.3349 160.948 50.0815C160.948 49.8414 160.894 49.6213 160.786 49.4213C160.679 49.2078 160.512 49.041 160.284 48.921C160.069 48.7877 159.808 48.721 159.5 48.721H157.427C156.769 48.721 156.194 48.6142 155.696 48.4007C155.214 48.174 154.831 47.8472 154.55 47.4203C154.282 46.9935 154.148 46.4732 154.148 45.8596C154.148 45.3395 154.276 44.8592 154.53 44.4191C154.784 43.9789 155.14 43.6254 155.596 43.3586C156.052 43.0785 156.576 42.9385 157.166 42.9385H161.894V44.5192H157.347C156.931 44.5192 156.602 44.6459 156.361 44.8993C156.12 45.1528 155.998 45.4528 155.998 45.7996C155.998 46.1331 156.12 46.4267 156.361 46.68C156.616 46.9202 156.971 47.0402 157.427 47.0402H159.398C160.137 47.0402 160.754 47.1603 161.25 47.4003C161.76 47.6271 162.142 47.9606 162.397 48.4007C162.664 48.841 162.8 49.3813 162.8 50.0214C162.8 50.5684 162.664 51.082 162.397 51.5621C162.129 52.0289 161.752 52.4092 161.27 52.7026C160.8 52.9961 160.251 53.1428 159.619 53.1428H154.489Z" fill="#6C6F75"/>
<path d="M0.15332 46.1946H95.82" stroke="#6C6F75" stroke-width="0.7"/>
<path fill-rule="evenodd" clip-rule="evenodd" d="M102.953 47.6628H106.765L107.254 49.6073L105.016 53.4962V49.7142C105.011 49.7087 105.007 49.7027 105.004 49.6966C105.343 49.6458 105.602 49.3553 105.602 49.0044C105.602 48.6179 105.287 48.3044 104.898 48.3044C104.51 48.3044 104.195 48.6179 104.195 49.0044C104.195 49.3345 104.424 49.6113 104.733 49.6852C104.737 49.6951 104.74 49.7049 104.742 49.7142V53.4962L102.542 49.6073L102.953 47.6628Z" fill="#6C6F75"/>
<path d="M107.889 39.8265C108.051 39.8265 108.182 39.6959 108.182 39.5348C108.182 39.3738 108.051 39.2432 107.889 39.2432C107.727 39.2432 107.596 39.3738 107.596 39.5348C107.596 39.6959 107.727 39.8265 107.889 39.8265Z" fill="#6C6F75"/>
<path d="M101.847 39.8265C102.009 39.8265 102.14 39.6959 102.14 39.5348C102.14 39.3738 102.009 39.2432 101.847 39.2432C101.685 39.2432 101.554 39.3738 101.554 39.5348C101.554 39.6959 101.685 39.8265 101.847 39.8265Z" fill="#6C6F75"/>
<path fill-rule="evenodd" clip-rule="evenodd" d="M99.8718 47.2813V47.5855C100.74 47.2666 100.429 46.5063 100.087 46.3604V45.8938H99.9696C100.267 45.2793 101.276 44.6783 101.739 44.4742C101.88 44.6687 102.169 44.7109 102.296 44.7075C102.335 45.0265 102.834 45.6442 103.079 45.9132L102.844 47.3618H106.911L106.706 45.9132C107.026 45.6565 107.367 45.0025 107.497 44.7075C107.943 44.6609 108.048 44.5391 108.045 44.4839C108.952 44.7717 109.603 45.5242 109.815 45.8646H109.717V46.3409C109.013 46.932 109.547 47.4299 109.903 47.6049V47.2967C109.785 47.2271 109.707 47.0997 109.707 46.9542C109.707 46.734 109.886 46.5556 110.108 46.5556C110.329 46.5556 110.509 46.734 110.509 46.9542C110.509 47.1076 110.421 47.2408 110.294 47.3074V47.6049C111.154 47.2549 110.802 46.4771 110.518 46.3409V45.8646H110.352C110.305 44.5501 109.134 43.852 108.553 43.6673C108.647 43.4495 108.619 43.2136 108.593 43.1228C108.327 42.3529 107.126 42.802 106.559 43.1228C106.434 43.0295 106.253 43.0256 106.178 43.0353C107.085 42.7553 107.638 42.0696 107.801 41.7616C107.911 41.7973 108.151 41.7616 108.221 41.3339C108.291 40.9061 108.1 40.7084 107.996 40.663V39.788C108.153 39.788 108.215 39.3311 107.869 39.3311C107.576 39.3311 107.654 39.6713 107.801 39.788V40.488C107.69 40.0051 106.983 39.0218 105.044 38.9519C103.104 38.8818 102.15 39.9922 101.915 40.5561V39.788C102.14 39.7005 102.169 39.2416 101.827 39.3699C101.544 39.4763 101.576 39.6811 101.739 39.788V40.6338C101.622 40.6306 101.395 40.7467 101.426 41.2367C101.458 41.7266 101.817 41.7973 101.993 41.7714C102.275 42.4324 103.16 42.8895 103.567 43.0353C103.474 43.0276 103.294 43.0905 103.215 43.1228C102.918 42.9361 102.564 42.8246 102.423 42.7922C101.039 42.5355 101.052 43.2687 101.231 43.6673C99.7838 44.1339 99.4483 45.346 99.4612 45.8938H99.3439V46.3604C99.282 46.3215 99.0017 46.4382 98.9333 46.8173C98.8473 47.2943 99.2689 47.5206 99.5198 47.5855V47.301C99.3818 47.241 99.2852 47.104 99.2852 46.9444C99.2852 46.941 99.2854 46.9377 99.2854 46.9343C99.2854 46.9308 99.2852 46.9274 99.2852 46.9241C99.2852 46.7092 99.4604 46.5351 99.6763 46.5351C99.8924 46.5351 100.067 46.7092 100.067 46.9241C100.067 46.9274 100.067 46.9308 100.067 46.9343C100.067 46.9377 100.067 46.941 100.067 46.9444C100.067 47.0884 99.9888 47.2141 99.8718 47.2813Z" fill="#6C6F75"/>
<path d="M104.888 44.7079L103.206 43.8037L104.888 45.894L106.569 43.8037L104.888 44.7079Z" fill="white"/>
<path d="M104.594 42.6863C102.975 42.6086 102.544 41.5586 102.531 41.0432C102.484 40.5999 102.915 40.6446 103.137 40.7224C104.858 41.4127 106.168 40.8974 106.725 40.7224C107.171 40.5825 107.269 40.878 107.263 41.0432C107.204 41.6655 106.617 42.7836 104.594 42.6863Z" fill="white"/>
<path d="M103.773 42.219C104.048 42.219 104.272 41.997 104.272 41.7231C104.272 41.4493 104.048 41.2273 103.773 41.2273C103.498 41.2273 103.274 41.4493 103.274 41.7231C103.274 41.997 103.498 42.219 103.773 42.219Z" fill="#6C6F75"/>
<path d="M105.904 42.219C106.179 42.219 106.402 41.997 106.402 41.7231C106.402 41.4493 106.179 41.2273 105.904 41.2273C105.629 41.2273 105.405 41.4493 105.405 41.7231C105.405 41.997 105.629 42.219 105.904 42.219Z" fill="#6C6F75"/>
</svg>
