<svg width="21" height="20" viewBox="0 0 21 20" fill="none" xmlns="http://www.w3.org/2000/svg">
<path d="M17.2351 2.92891C15.3464 1.0402 12.8352 0 10.1641 0C7.49293 0 4.98168 1.0402 3.09297 2.92891C1.20422 4.81766 0.164062 7.32891 0.164062 10C0.164062 12.6711 1.20422 15.1823 3.09297 17.0711C4.98172 18.9598 7.49293 20 10.1641 20C12.8352 20 15.3464 18.9598 17.2351 17.0711C19.1239 15.1823 20.1641 12.6711 20.1641 10C20.1641 7.32891 19.1239 4.8177 17.2351 2.92891ZM10.1641 18.8281C5.29621 18.8281 1.33594 14.8679 1.33594 10C1.33594 5.13215 5.29621 1.17188 10.1641 1.17188C15.0319 1.17188 18.9922 5.13215 18.9922 10C18.9922 14.8679 15.0319 18.8281 10.1641 18.8281Z" fill="#292D36"/>
<path d="M14.9416 6.79143C14.7128 6.56268 14.3418 6.56268 14.113 6.79147L8.93881 11.9656L6.2151 9.24194C5.98631 9.01315 5.61529 9.01315 5.38646 9.24194C5.15764 9.47073 5.15764 9.84174 5.38646 10.0706L8.52447 13.2086C8.57882 13.2631 8.6434 13.3063 8.7145 13.3357C8.7856 13.3652 8.86181 13.3803 8.93877 13.3802C9.08869 13.3802 9.23869 13.323 9.35307 13.2086L14.9416 7.62006C15.1704 7.39127 15.1704 7.02026 14.9416 6.79143Z" fill="#292D36"/>
</svg>
