<svg width="24" height="24" viewBox="0 0 24 24" fill="none" xmlns="http://www.w3.org/2000/svg">
<g clip-path="url(#clip0_1_240)">
<mask id="mask0_1_240" style="mask-type:luminance" maskUnits="userSpaceOnUse" x="0" y="0" width="24" height="24">
<path d="M0 0H24V24H0V0Z" fill="white"/>
</mask>
<g mask="url(#mask0_1_240)">
<path fill-rule="evenodd" clip-rule="evenodd" d="M23.7064 5.29303C23.8939 5.48056 23.9992 5.73487 23.9992 6.00003C23.9992 6.26519 23.8939 6.5195 23.7064 6.70703L14.2064 16.207C14.0189 16.3945 13.7646 16.4998 13.4994 16.4998C13.2343 16.4998 12.98 16.3945 12.7924 16.207L8.49943 11.914L1.70643 18.707C1.51783 18.8892 1.26523 18.99 1.00303 18.9877C0.740833 18.9854 0.49002 18.8803 0.304612 18.6948C0.119204 18.5094 0.014035 18.2586 0.0117566 17.9964C0.00947813 17.7342 0.110273 17.4816 0.292431 17.293L7.79243 9.79303C7.97996 9.60556 8.23427 9.50024 8.49943 9.50024C8.7646 9.50024 9.0189 9.60556 9.20643 9.79303L13.4994 14.086L22.2924 5.29303C22.48 5.10556 22.7343 5.00024 22.9994 5.00024C23.2646 5.00024 23.5189 5.10556 23.7064 5.29303Z" fill="#292D36"/>
<path fill-rule="evenodd" clip-rule="evenodd" d="M16 6C16 5.73478 16.1054 5.48043 16.2929 5.29289C16.4804 5.10536 16.7348 5 17 5H23C23.2652 5 23.5196 5.10536 23.7071 5.29289C23.8946 5.48043 24 5.73478 24 6V12C24 12.2652 23.8946 12.5196 23.7071 12.7071C23.5196 12.8946 23.2652 13 23 13C22.7348 13 22.4804 12.8946 22.2929 12.7071C22.1054 12.5196 22 12.2652 22 12V7H17C16.7348 7 16.4804 6.89464 16.2929 6.70711C16.1054 6.51957 16 6.26522 16 6Z" fill="#292D36"/>
</g>
</g>
<defs>
<clipPath id="clip0_1_240">
<rect width="24" height="24" fill="white"/>
</clipPath>
</defs>
</svg>
