<svg width="30" height="30" viewBox="0 0 30 30" fill="none" xmlns="http://www.w3.org/2000/svg">
<path d="M8.02324 5.525L8.02344 5.525L15.9922 5.525C16.143 5.525 16.2877 5.58492 16.3944 5.69158C16.501 5.79824 16.5609 5.94291 16.5609 6.09375C16.5609 6.24459 16.501 6.38926 16.3944 6.49592C16.2877 6.60258 16.143 6.6625 15.9922 6.6625L8.02359 6.6625C8.02356 6.6625 8.02354 6.6625 8.02352 6.6625C7.9257 6.66267 7.83188 6.7013 7.76231 6.77005C7.69363 6.83965 7.65469 6.93338 7.65469 7.03125V22.8995L13.8235 19.1782C13.9121 19.1246 14.0136 19.0962 14.1172 19.0962C14.2207 19.0962 14.3223 19.1246 14.4109 19.1782L20.5797 22.8985V11.25C20.5797 11.0992 20.6396 10.9545 20.7463 10.8478C20.8529 10.7412 20.9976 10.6813 21.1484 10.6813C21.2993 10.6813 21.4439 10.7412 21.5506 10.8478C21.6573 10.9545 21.7172 11.0992 21.7172 11.25V23.9062V23.9063C21.7171 24.007 21.6903 24.1059 21.6395 24.1929C21.5887 24.2798 21.5158 24.3517 21.4281 24.4012C21.3404 24.4507 21.2411 24.4761 21.1404 24.4747C21.0397 24.4733 20.9412 24.4451 20.855 24.3932L20.8549 24.3931L14.1172 20.3293L7.37972 24.393L8.02324 5.525ZM8.02324 5.525C7.62406 5.5258 7.24145 5.68472 6.95918 5.96699C6.67691 6.24926 6.51799 6.63187 6.51719 7.03105V7.03125V23.9061L8.02324 5.525ZM20.5797 6.4625H19.2734C19.1226 6.4625 18.9779 6.52242 18.8713 6.62908C18.7646 6.73574 18.7047 6.88041 18.7047 7.03125C18.7047 7.18209 18.7646 7.32676 18.8713 7.43342C18.9779 7.54008 19.1226 7.6 19.2734 7.6H20.5797V8.90625C20.5797 9.05709 20.6396 9.20176 20.7463 9.30842C20.8529 9.41508 20.9976 9.475 21.1484 9.475C21.2993 9.475 21.4439 9.41508 21.5506 9.30842C21.6573 9.20176 21.7172 9.05709 21.7172 8.90625V7.6H23.0234C23.1743 7.6 23.3189 7.54008 23.4256 7.43342C23.5323 7.32676 23.5922 7.18209 23.5922 7.03125C23.5922 6.88041 23.5323 6.73574 23.4256 6.62908C23.3189 6.52242 23.1743 6.4625 23.0234 6.4625H21.7172V5.15625C21.7172 5.00541 21.6573 4.86074 21.5506 4.75408C21.4439 4.64742 21.2993 4.5875 21.1484 4.5875C20.9976 4.5875 20.8529 4.64742 20.7463 4.75408C20.6396 4.86074 20.5797 5.00541 20.5797 5.15625V6.4625Z" fill="#6C6F75" stroke="#6C6F75" stroke-width="0.2"/>
</svg>
