<svg width="80" height="80" viewBox="0 0 80 80" fill="none" xmlns="http://www.w3.org/2000/svg">
<circle cx="40" cy="40" r="40" fill="#FCEBEB"/>
<circle cx="40" cy="40" r="32" fill="#FCD4D3"/>
<path d="M40 57C49.3967 57 57 49.396 57 40C57 30.6033 49.396 23 40 23C30.6033 23 23 30.604 23 40C23 49.3967 30.604 57 40 57ZM40 25.6563C47.9284 25.6563 54.3438 32.0721 54.3438 40C54.3438 47.9284 47.9279 54.3437 40 54.3437C32.0716 54.3437 25.6562 47.9279 25.6562 40C25.6562 32.0716 32.0722 25.6563 40 25.6563Z" fill="#ED3B35"/>
<path d="M40.0002 43.6667C41.0127 43.6667 41.8335 42.9859 41.8335 42.1461L41.8335 32.354C41.8335 31.5141 41.0127 30.8334 40.0002 30.8334C38.9876 30.8334 38.1668 31.5142 38.1668 32.354L38.1668 42.1461C38.1668 42.9859 38.9876 43.6667 40.0002 43.6667Z" fill="#ED3B35"/>
<path d="M40.0002 45.5C38.9876 45.5 38.1668 46.3208 38.1668 47.3334C38.1668 48.3459 38.9876 49.1667 40.0002 49.1667C41.0127 49.1667 41.8335 48.3459 41.8335 47.3334C41.8335 46.3208 41.0127 45.5 40.0002 45.5Z" fill="#ED3B35"/>
</svg>
