<svg width="29" height="28" viewBox="0 0 29 28" fill="none" xmlns="http://www.w3.org/2000/svg">
<path d="M25.9384 11.715H24.9987V11.6666H14.4987V16.3333H21.0921C20.1302 19.0498 17.5454 20.9999 14.4987 20.9999C10.6329 20.9999 7.4987 17.8657 7.4987 13.9999C7.4987 10.1342 10.6329 6.99992 14.4987 6.99992C16.2831 6.99992 17.9065 7.67309 19.1426 8.77267L22.4425 5.47275C20.3589 3.53084 17.5717 2.33325 14.4987 2.33325C8.05578 2.33325 2.83203 7.557 2.83203 13.9999C2.83203 20.4428 8.05578 25.6666 14.4987 25.6666C20.9416 25.6666 26.1654 20.4428 26.1654 13.9999C26.1654 13.2177 26.0849 12.4541 25.9384 11.715Z" fill="#FFC107"/>
<path d="M4.17773 8.56967L8.01082 11.3808C9.04798 8.81292 11.5598 6.99992 14.4992 6.99992C16.2837 6.99992 17.9071 7.67308 19.1432 8.77267L22.4431 5.47275C20.3594 3.53084 17.5722 2.33325 14.4992 2.33325C10.0181 2.33325 6.1319 4.86317 4.17773 8.56967Z" fill="#FF3D00"/>
<path d="M14.4995 25.6666C17.513 25.6666 20.2512 24.5133 22.3214 22.6379L18.7106 19.5824C17.4999 20.5031 16.0205 21.0011 14.4995 20.9999C11.465 20.9999 8.88845 19.065 7.91778 16.3647L4.11328 19.296C6.04411 23.0742 9.96528 25.6666 14.4995 25.6666Z" fill="#4CAF50"/>
<path d="M25.9398 11.7152H25V11.6667H14.5V16.3334H21.0934C20.6333 17.6263 19.8045 18.7561 18.7093 19.5832L18.7111 19.582L22.3219 22.6375C22.0664 22.8697 26.1667 19.8334 26.1667 14.0001C26.1667 13.2178 26.0862 12.4542 25.9398 11.7152Z" fill="#1976D2"/>
</svg>
