<svg width="22" height="12" viewBox="0 0 22 12" fill="none" xmlns="http://www.w3.org/2000/svg">
<path d="M1.00368 5.50433L1.00316 5.50486C0.730873 5.77878 0.730818 6.22119 1.00314 6.49508L1.00365 6.49559L5.52058 11.0125C5.54229 11.0371 5.56557 11.06 5.59012 11.081L5.59017 11.0811C5.88481 11.3334 6.32812 11.299 6.58042 11.0045C6.83046 10.7126 6.79902 10.2747 6.51191 10.0213L3.19519 6.70454H20.4984C20.8862 6.70454 21.2007 6.39015 21.2007 6.00225C21.2007 5.61438 20.8863 5.29992 20.4984 5.29992H3.19467L6.51194 1.97863C6.53651 1.95694 6.55934 1.93368 6.58036 1.90916L6.58042 1.9091C6.83278 1.61449 6.79842 1.17113 6.50386 0.918855L1.00368 5.50433ZM1.00368 5.50433L5.52061 0.987364M1.00368 5.50433L5.52061 0.987364M5.52061 0.987364C5.77401 0.700255 6.21193 0.668814 6.50384 0.918837L5.52061 0.987364Z" fill="#919191" stroke="#919191" stroke-width="0.5"/>
</svg>
