<svg width="24" height="24" viewBox="0 0 24 24" fill="none" xmlns="http://www.w3.org/2000/svg">
<path d="M13.5898 11.1593C13.4913 11.1595 13.3937 11.1401 13.3027 11.1024C13.2117 11.0647 13.1291 11.0094 13.0596 10.9395C11.8899 9.76991 9.98681 9.76954 8.81681 10.9395C8.74762 11.0112 8.66487 11.0683 8.57336 11.1076C8.48186 11.1469 8.38344 11.1676 8.28386 11.1685C8.18428 11.1693 8.08552 11.1504 7.99334 11.1127C7.90117 11.0749 7.81743 11.0193 7.74701 10.9488C7.67659 10.8784 7.6209 10.7947 7.58319 10.7025C7.54548 10.6103 7.52651 10.5116 7.52737 10.412C7.52824 10.3124 7.54893 10.214 7.58823 10.1225C7.62754 10.031 7.68468 9.94822 7.75631 9.87904C9.51093 8.12404 12.3658 8.12441 14.1201 9.87904C14.2249 9.98393 14.2963 10.1175 14.3252 10.263C14.3542 10.4085 14.3393 10.5593 14.2826 10.6963C14.2258 10.8333 14.1297 10.9504 14.0064 11.0328C13.8831 11.1153 13.7381 11.1593 13.5898 11.1593ZM13.0596 15.4377C11.9072 15.4377 10.7548 14.9989 9.87768 14.1218C9.80605 14.0526 9.74892 13.9698 9.70961 13.8783C9.6703 13.7868 9.64961 13.6884 9.64875 13.5888C9.64788 13.4893 9.66686 13.3905 9.70457 13.2983C9.74228 13.2061 9.79797 13.1224 9.86839 13.052C9.93881 12.9816 10.0225 12.9259 10.1147 12.8882C10.2069 12.8505 10.3057 12.8315 10.4052 12.8323C10.5048 12.8332 10.6032 12.8539 10.6947 12.8932C10.7862 12.9325 10.869 12.9897 10.9382 13.0613C12.1078 14.2309 14.0109 14.2313 15.1809 13.0613C15.2501 12.9897 15.3329 12.9325 15.4244 12.8932C15.5159 12.8539 15.6143 12.8332 15.7139 12.8323C15.8135 12.8315 15.9122 12.8505 16.0044 12.8882C16.0966 12.9259 16.1803 12.9816 16.2507 13.052C16.3212 13.1224 16.3768 13.2061 16.4146 13.2983C16.4523 13.3905 16.4712 13.4893 16.4704 13.5888C16.4695 13.6884 16.4488 13.7868 16.4095 13.8783C16.3702 13.9698 16.3131 14.0526 16.2414 14.1218C15.8238 14.5398 15.3278 14.8712 14.7817 15.0971C14.2357 15.3229 13.6504 15.4386 13.0596 15.4377Z" fill="#6C6F75"/>
<path d="M15.7112 14.3412C15.5629 14.3411 15.418 14.2971 15.2947 14.2147C15.1713 14.1323 15.0752 14.0152 15.0185 13.8782C14.9617 13.7411 14.9469 13.5904 14.9758 13.4449C15.0047 13.2994 15.0761 13.1658 15.181 13.0609L19.3705 8.87141C19.4397 8.79978 19.5224 8.74264 19.6139 8.70334C19.7054 8.66403 19.8039 8.64334 19.9034 8.64248C20.003 8.64161 20.1018 8.66059 20.194 8.6983C20.2861 8.73601 20.3699 8.7917 20.4403 8.86212C20.5107 8.93254 20.5664 9.01628 20.6041 9.10845C20.6418 9.20062 20.6608 9.29938 20.6599 9.39897C20.6591 9.49855 20.6384 9.59696 20.5991 9.68847C20.5598 9.77997 20.5026 9.86273 20.431 9.93191L16.2415 14.1214C16.172 14.1912 16.0894 14.2466 15.9983 14.2843C15.9073 14.322 15.8098 14.3413 15.7112 14.3412ZM9.40075 20.6517C9.25243 20.6516 9.10746 20.6076 8.98415 20.5252C8.86085 20.4428 8.76474 20.3257 8.70799 20.1887C8.65124 20.0516 8.63638 19.9009 8.66531 19.7554C8.69423 19.6099 8.76564 19.4763 8.8705 19.3714L11.2124 17.0295C11.2816 16.9579 11.3643 16.9008 11.4558 16.8615C11.5473 16.8222 11.6457 16.8015 11.7453 16.8006C11.8449 16.7997 11.9437 16.8187 12.0358 16.8564C12.128 16.8941 12.2117 16.9498 12.2822 17.0202C12.3526 17.0907 12.4083 17.1744 12.446 17.2666C12.4837 17.3587 12.5027 17.4575 12.5018 17.5571C12.5009 17.6567 12.4803 17.7551 12.4409 17.8466C12.4016 17.9381 12.3445 18.0209 12.2729 18.09L9.931 20.4319C9.86149 20.5017 9.77885 20.5571 9.68784 20.5948C9.59684 20.6325 9.49926 20.6518 9.40075 20.6517ZM4.0975 15.3484C3.94918 15.3484 3.80421 15.3044 3.6809 15.222C3.55759 15.1396 3.46149 15.0224 3.40474 14.8854C3.34799 14.7484 3.33313 14.5976 3.36206 14.4521C3.39098 14.3067 3.46239 14.1731 3.56725 14.0682L7.75675 9.87904C7.82593 9.80741 7.90869 9.75027 8.00019 9.71096C8.0917 9.67166 8.19011 9.65097 8.2897 9.6501C8.38928 9.64924 8.48804 9.66821 8.58021 9.70592C8.67238 9.74363 8.75612 9.79932 8.82654 9.86974C8.89696 9.94016 8.95265 10.0239 8.99036 10.1161C9.02807 10.2082 9.04705 10.307 9.04618 10.4066C9.04532 10.5062 9.02463 10.6046 8.98532 10.6961C8.94602 10.7876 8.88888 10.8704 8.81725 10.9395L4.62775 15.1287C4.48112 15.2749 4.28912 15.3484 4.0975 15.3484ZM12.2556 7.19066C12.1073 7.19063 11.9623 7.14663 11.839 7.06422C11.7157 6.9818 11.6196 6.86468 11.5629 6.72765C11.5061 6.59063 11.4913 6.43985 11.5202 6.29439C11.5491 6.14893 11.6205 6.0153 11.7254 5.91041L14.0672 3.56816C14.2079 3.42748 14.3987 3.34845 14.5977 3.34845C14.7966 3.34845 14.9874 3.42748 15.1281 3.56816C15.2688 3.70884 15.3478 3.89965 15.3478 4.0986C15.3478 4.29755 15.2688 4.48836 15.1281 4.62904L12.7862 6.97129C12.6454 7.1118 12.4546 7.1907 12.2556 7.19066Z" fill="#6C6F75"/>
<path d="M6.74906 21.7257C5.58919 21.7257 4.42931 21.2944 3.56719 20.4319C1.84219 18.7069 1.84219 15.7928 3.56719 14.0678C3.63637 13.9962 3.71913 13.939 3.81063 13.8997C3.90214 13.8604 4.00055 13.8397 4.10014 13.8389C4.19972 13.838 4.29848 13.857 4.39065 13.8947C4.48283 13.9324 4.56656 13.9881 4.63698 14.0585C4.7074 14.1289 4.76309 14.2127 4.8008 14.3048C4.83851 14.397 4.85749 14.4958 4.85663 14.5953C4.85576 14.6949 4.83507 14.7933 4.79576 14.8848C4.75646 14.9763 4.69932 15.0591 4.62769 15.1283C3.47794 16.278 3.47794 18.2213 4.62769 19.371C5.77744 20.5208 7.72069 20.5208 8.87044 19.371C8.93962 19.2994 9.02238 19.2423 9.11388 19.203C9.20539 19.1637 9.3038 19.143 9.40339 19.1421C9.50297 19.1412 9.60173 19.1602 9.6939 19.1979C9.78607 19.2356 9.86981 19.2913 9.94023 19.3617C10.0107 19.4322 10.0663 19.5159 10.1041 19.6081C10.1418 19.7002 10.1607 19.799 10.1599 19.8986C10.159 19.9982 10.1383 20.0966 10.099 20.1881C10.0597 20.2796 10.0026 20.3624 9.93094 20.4315C9.06881 21.2944 7.90894 21.7257 6.74906 21.7257ZM19.9007 10.1517C19.7524 10.1516 19.6074 10.1076 19.4841 10.0252C19.3608 9.9428 19.2647 9.82568 19.2079 9.68866C19.1512 9.55163 19.1363 9.40086 19.1653 9.25539C19.1942 9.10993 19.2656 8.9763 19.3704 8.87141C20.5202 7.72166 20.5202 5.77841 19.3704 4.62866C18.2207 3.47891 16.2774 3.47891 15.1277 4.62866C15.0585 4.7003 14.9757 4.75743 14.8842 4.79674C14.7927 4.83605 14.6943 4.85674 14.5947 4.8576C14.4952 4.85847 14.3964 4.83949 14.3042 4.80178C14.212 4.76407 14.1283 4.70838 14.0579 4.63796C13.9875 4.56754 13.9318 4.4838 13.8941 4.39163C13.8564 4.29946 13.8374 4.2007 13.8382 4.10111C13.8391 4.00153 13.8598 3.90311 13.8991 3.81161C13.9384 3.72011 13.9956 3.63735 14.0672 3.56816C15.7922 1.84316 18.7063 1.84316 20.4313 3.56816C22.1563 5.29316 22.1563 8.20729 20.4313 9.93229C20.2847 10.0785 20.0927 10.1517 19.9007 10.1517Z" fill="#6C6F75"/>
</svg>
