<svg width="30" height="30" viewBox="0 0 30 30" fill="none" xmlns="http://www.w3.org/2000/svg">
<path d="M20.6932 15C20.6932 15.5304 20.9039 16.0391 21.279 16.4142C21.6541 16.7893 22.1628 17 22.6932 17C23.2236 17 23.7323 16.7893 24.1074 16.4142C24.4825 16.0391 24.6932 15.5304 24.6932 15C24.6932 14.4696 24.4825 13.9609 24.1074 13.5858C23.7323 13.2107 23.2236 13 22.6932 13C22.1628 13 21.6541 13.2107 21.279 13.5858C20.9039 13.9609 20.6932 14.4696 20.6932 15ZM13.0009 15C13.0009 15.2626 13.0526 15.5227 13.1531 15.7654C13.2536 16.008 13.401 16.2285 13.5867 16.4142C13.7724 16.5999 13.9929 16.7472 14.2355 16.8478C14.4782 16.9483 14.7383 17 15.0009 17C15.2635 17 15.5236 16.9483 15.7663 16.8478C16.0089 16.7472 16.2294 16.5999 16.4151 16.4142C16.6008 16.2285 16.7481 16.008 16.8487 15.7654C16.9492 15.5227 17.0009 15.2626 17.0009 15C17.0009 14.4696 16.7902 13.9609 16.4151 13.5858C16.04 13.2107 15.5313 13 15.0009 13C14.4705 13 13.9618 13.2107 13.5867 13.5858C13.2116 13.9609 13.0009 14.4696 13.0009 15ZM7.30859 17C7.04595 17 6.78588 16.9483 6.54322 16.8478C6.30057 16.7472 6.08009 16.5999 5.89438 16.4142C5.70866 16.2285 5.56134 16.008 5.46083 15.7654C5.36032 15.5227 5.30859 15.2626 5.30859 15C5.30859 14.7374 5.36032 14.4773 5.46083 14.2346C5.56134 13.992 5.70866 13.7715 5.89438 13.5858C6.08009 13.4001 6.30057 13.2528 6.54322 13.1522C6.78588 13.0517 7.04595 13 7.30859 13C7.83902 13 8.34773 13.2107 8.7228 13.5858C9.09788 13.9609 9.30859 14.4696 9.30859 15C9.30859 15.5304 9.09788 16.0391 8.7228 16.4142C8.34773 16.7893 7.83902 17 7.30859 17Z" fill="#6C6F75"/>
</svg>
