<svg width="30" height="30" viewBox="0 0 30 30" fill="none" xmlns="http://www.w3.org/2000/svg">
<path d="M20.55 15.7C20.6959 15.7 20.8358 15.6421 20.9389 15.5389C21.0421 15.4358 21.1 15.2959 21.1 15.15C21.1 15.0041 21.0421 14.8642 20.9389 14.7611C20.8358 14.658 20.6959 14.6 20.55 14.6H9.45C9.30413 14.6 9.16424 14.658 9.06109 14.7611C8.95795 14.8642 8.9 15.0041 8.9 15.15C8.9 15.2959 8.95795 15.4358 9.06109 15.5389C9.16424 15.6421 9.30413 15.7 9.45 15.7H20.55Z" fill="#6C6F75" stroke="#6C6F75" strokeWidth="0.2"/>
<path d="M14.9996 25C20.5223 25 24.9996 20.5227 24.9996 15C24.9996 9.47728 20.5223 5.00001 14.9996 5.00001C9.47688 5.00001 4.99961 9.47728 4.99961 15C4.99961 20.5227 9.47688 25 14.9996 25ZM23.8996 15C23.8996 19.9155 19.9151 23.9 14.9996 23.9C10.0841 23.9 6.09961 19.9155 6.09961 15C6.09961 10.0845 10.0841 6.10001 14.9996 6.10001C19.9151 6.10001 23.8996 10.0845 23.8996 15Z" fill="#6C6F75" stroke="#6C6F75" strokeWidth="0.2"/>
</svg>
