<svg width="34" height="34" viewBox="0 0 34 34" fill="none" xmlns="http://www.w3.org/2000/svg">
<path d="M16.9998 31.9C15.8998 31.9 14.8998 31.5 14.1998 30.7C13.9998 30.5 13.9998 30.1 14.1998 29.9C14.3998 29.7 14.7998 29.7 14.9998 29.9C15.9998 31 17.6998 31.1 18.7998 30.1C18.8998 30 18.8998 30 18.9998 29.9C19.1998 29.7 19.4998 29.7 19.7998 29.9C19.9998 30.1 19.9998 30.4 19.7998 30.7C19.0998 31.5 18.0998 31.9 16.9998 31.9ZM26.5998 28.2H7.3998C6.2998 28.2 5.2998 27.3 5.2998 26.1V25.2C5.2998 24.7 5.4998 24.1 5.8998 23.7C6.7998 22.8 7.2998 21.5 7.2998 20.3V14.4C7.2998 9.1 11.5998 4.7 16.9998 4.7C22.2998 4.7 26.6998 9 26.6998 14.4V20.3C26.6998 21.6 27.1998 22.8 28.0998 23.7C28.4998 24.1 28.6998 24.6 28.6998 25.2V26.1C28.6998 27.3 27.7998 28.2 26.5998 28.2ZM16.9998 5.9C12.2998 5.9 8.3998 9.8 8.3998 14.5V20.4C8.3998 22 7.7998 23.5 6.6998 24.6C6.4998 24.8 6.3998 25 6.3998 25.3V26.2C6.3998 26.7 6.7998 27.2 7.3998 27.2H26.6998C27.1998 27.2 27.6998 26.8 27.6998 26.2V25.3C27.6998 25 27.5998 24.8 27.3998 24.6C26.2998 23.5 25.6998 22 25.6998 20.4V14.5C25.5998 9.8 21.6998 5.9 16.9998 5.9ZM18.2998 3.8C18.0998 3.8 17.9998 3.7 17.8998 3.6C17.5998 3.1 16.8998 3 16.3998 3.4C16.2998 3.5 16.1998 3.5 16.1998 3.6C15.9998 3.8 15.6998 3.9 15.4998 3.7C15.2998 3.5 15.1998 3.2 15.3998 3C16.0998 2 17.3998 1.8 18.3998 2.5C18.5998 2.6 18.7998 2.8 18.8998 3C19.0998 3.2 18.9998 3.6 18.7998 3.7C18.4998 3.7 18.3998 3.8 18.2998 3.8Z" fill="black"/>
</svg>
