<svg width="25" height="24" viewBox="0 0 25 24" fill="none" xmlns="http://www.w3.org/2000/svg">
<g clip-path="url(#clip0_572_1615)">
<path d="M24.1827 11.7496C22.9931 9.69325 21.2825 7.96852 19.2358 6.76201C17.1269 5.51883 14.7112 4.86172 12.25 4.86172C9.78869 4.86172 7.37298 5.51883 5.26409 6.76201C3.2174 7.96857 1.50679 9.69325 0.317189 11.7496C0.273175 11.8257 0.25 11.9121 0.25 12C0.25 12.0879 0.273175 12.1743 0.317189 12.2504C1.50679 14.3068 3.2174 16.0315 5.26409 17.238C7.37303 18.4812 9.78869 19.1383 12.25 19.1383C14.7112 19.1383 17.1269 18.4812 19.2358 17.238C21.2825 16.0315 22.9931 14.3068 24.1827 12.2504C24.2267 12.1743 24.2499 12.0879 24.2499 12C24.2499 11.9121 24.2267 11.8257 24.1827 11.7496ZM18.7279 16.3765C16.7727 17.529 14.5327 18.1383 12.2499 18.1383C9.96709 18.1383 7.72703 17.529 5.7719 16.3765C3.95688 15.3066 2.42674 13.7973 1.33144 11.9999C2.42674 10.2026 3.95688 8.69337 5.7719 7.62341C7.72703 6.47088 9.96709 5.86166 12.2499 5.86166C14.5327 5.86166 16.7727 6.47088 18.7279 7.62341C20.5429 8.69337 22.073 10.2025 23.1684 11.9999C22.073 13.7973 20.5429 15.3066 18.7279 16.3765Z" fill="#292D36"/>
<path d="M12.2497 7.50708C9.77229 7.50708 7.75684 9.52253 7.75684 11.9999C7.75684 14.4774 9.77229 16.4929 12.2497 16.4929C14.7271 16.4929 16.7426 14.4774 16.7426 11.9999C16.7426 9.52259 14.7271 7.50708 12.2497 7.50708ZM12.2497 15.4929C10.3237 15.4929 8.75682 13.926 8.75682 11.9999C8.75682 10.074 10.3237 8.50706 12.2497 8.50706C14.1757 8.50706 15.7426 10.074 15.7426 11.9999C15.7426 13.926 14.1757 15.4929 12.2497 15.4929Z" fill="#292D36"/>
</g>
<defs>
<clipPath id="clip0_572_1615">
<rect width="24" height="24" fill="white" transform="translate(0.25)"/>
</clipPath>
</defs>
</svg>
