<svg width="20" height="20" viewBox="0 0 20 20" fill="none" xmlns="http://www.w3.org/2000/svg">
<path d="M16.3315 2.65166C15.4611 1.78278 14.0515 1.78278 13.1811 2.65166L12.3925 3.44462L3.99765 11.835L3.97981 11.8529C3.97552 11.8573 3.97552 11.8618 3.97088 11.8618C3.96196 11.8752 3.94858 11.8885 3.93984 11.9019C3.93984 11.9063 3.9352 11.9063 3.9352 11.9108C3.92628 11.9242 3.922 11.9331 3.9129 11.9465C3.90862 11.9509 3.90862 11.9553 3.90412 11.9599C3.89966 11.9732 3.8952 11.9822 3.8906 11.9955C3.8906 11.9998 3.88632 11.9998 3.88632 12.0045L2.0237 17.6053C1.99692 17.6835 1.99274 17.7676 2.01165 17.848C2.03056 17.9283 2.0718 18.0018 2.1306 18.0598C2.21485 18.143 2.32859 18.1895 2.44699 18.1891C2.49538 18.1882 2.54333 18.1807 2.58958 18.1668L8.18617 16.2998C8.19049 16.2998 8.19049 16.2998 8.19509 16.2955C8.20919 16.2913 8.22264 16.2853 8.23509 16.2775C8.2385 16.277 8.24168 16.2755 8.24416 16.2732C8.25739 16.2642 8.27524 16.2552 8.28862 16.2462C8.30185 16.2375 8.31538 16.2241 8.32876 16.2152C8.33322 16.2105 8.33754 16.2105 8.33754 16.2063C8.34217 16.2018 8.35109 16.1975 8.35552 16.1884L17.5389 7.00497C18.4079 6.13455 18.4079 4.72498 17.5389 3.85467L16.3315 2.65166ZM8.04363 15.2526L4.94239 12.1515L12.7044 4.3895L15.8056 7.4906L8.04363 15.2526ZM4.50557 12.9758L7.21488 15.685L3.1466 17.0394L4.50557 12.9758ZM16.9108 6.38111L16.4384 6.85792L13.3371 3.75658L13.814 3.27987C14.3357 2.7586 15.1813 2.7586 15.7032 3.27987L16.9151 4.49184C17.4329 5.01589 17.431 5.85955 16.9108 6.38111Z" fill="white"/>
</svg>
