<svg width="16" height="20" viewBox="0 0 16 20" fill="none" xmlns="http://www.w3.org/2000/svg">
<path d="M13.8321 0.000152588H2.22801C1.28294 0.000152588 0.453125 0.777619 0.453125 1.69788V18.8638C0.453125 19.1719 0.53886 19.4286 0.677037 19.627C0.757311 19.7426 0.864486 19.8369 0.989328 19.9019C1.11417 19.9668 1.25293 20.0005 1.39367 19.9999C1.66342 19.9999 1.95062 19.8798 2.21584 19.6533L7.4075 15.2453C7.56784 15.1084 7.79817 15.0299 8.03764 15.0299C8.27702 15.0299 8.50688 15.1084 8.66769 15.2457L13.842 19.6526C14.1082 19.8798 14.3756 20 14.6448 20C15.1002 20 15.5441 19.6488 15.5441 18.8639V1.69788C15.5441 0.777619 14.7772 0.000152588 13.8321 0.000152588Z" fill="#6C6F75"/>
</svg>
